<?xml version="1.0" encoding="UTF-8"?>
<svg xmlns="http://www.w3.org/2000/svg" viewBox="0 0 512 512" width="100%" height="100%">
<path d="M511.92 246.57C511.92 256.72 511.92 266.87 511.92 277.02C510.31 280.81 509.61 296.79 508.83 302.22C506.89 315.71 503.16 329.25 498.82 342.13C480.29 397.24 441.01 444.89 391.44 475.22C376.38 484.44 360.14 492.75 343.3 498.12C336.69 500.23 329.6 503.2 323.21 498.54C318.89 495.39 318.78 490.1 318.8 485.25C318.85 476.92 318.9 468.58 318.92 460.25C319 431.13 324.44 396.5 302.42 373.75C304.74 371.83 320.65 370.75 325 369.74C340.77 366.07 356.84 361.72 370.6 352.82C403.3 331.69 416.33 298.64 418.12 260.75C418.75 247.35 418.55 233.88 414.77 220.93C411.57 209.97 406.36 199.82 399.71 190.53C397.53 187.48 394.71 184.84 392.61 181.75C393.43 175.52 396.08 169.58 396.81 163.21C398.7 146.71 395.43 130.56 389.75 115.23C373.43 111.13 351.01 122.65 336.91 130.19C332.85 132.37 328.97 134.9 325.06 137.33C323.57 138.26 321.08 140.71 319.26 140.74C315.98 140.8 303.89 137.04 299.58 136.23C285.08 133.51 269.52 131.89 254.75 132.26C240.51 132.63 226.34 133.76 212.32 136.18C208.13 136.91 194.8 140.96 191.76 140.63C189.25 140.37 177.69 132.04 174.47 130.29C160.42 122.63 137.54 111.14 121.25 115.22C115.55 130.33 112.06 146.84 114.22 163.13C115.07 169.53 117.92 175.55 118.81 181.75C110.19 192.04 102.72 202.67 98.21 215.4C93.64 228.32 92.65 241.61 92.87 255.25C93.43 291.66 105.71 331.68 138.63 351.62C153.26 360.49 168.76 366.04 185.43 369.77C190.98 371.01 196.67 371.48 202.25 372.52C204.25 372.89 206.96 372.59 208.51 373.75C204.68 379.66 199.91 384.16 197.23 390.93C195.86 394.38 194.24 405.01 192.71 406.98C190.67 409.59 179.44 411.51 176.09 412.3C158.56 416.42 140.72 411.23 128.05 398.69C123.03 393.72 119.92 387.58 115.73 382.01C107.64 371.25 96.46 362.87 82.99 360.75C79.41 360.18 70.29 359.2 68.18 363.4C66.55 366.64 70.33 369.89 72.5 371.75C80.84 378.87 86.4 381.17 93.84 390.38C102.72 401.36 105.29 415.75 114.18 426.59C127.6 442.93 148.12 449.35 168.75 448.95C176.5 448.8 184.13 446.47 191.75 446.25C193.55 451.53 192.25 461.85 192.32 467.75C192.4 475.9 194.98 492.02 188.75 498.01C180.82 505.64 167.91 498.42 159.61 495.2C134.06 485.29 109.82 470.67 88.93 452.8C51.6 420.87 24.91 379.66 10.23 333.07C6.42 320.97 4.01 308.23 2.2 295.67C1.46 290.55 2.06 281.8 0.08 277.43C0.08 267.12 0.08 256.82 0.08 246.51C2.24 241.65 1.49 234.13 2.17 228.78C3.46 218.62 5.48 208.28 8.23 198.43C18 163.42 34.61 130.37 58.21 102.45C129.99 17.52 243.51 -10 347.62 27.18C384.85 40.48 418.87 64.55 445.82 93.42C472.49 121.98 492.21 157.48 502.78 194.91C505.9 205.96 508.29 217.39 509.82 228.79C510.47 233.68 509.99 242.45 511.92 246.57Z" fill="currentColor" fill-rule="evenodd" stroke="currentColor" stroke-width="0.25" stroke-linejoin="round"/>
</svg>
