<?xml version="1.0" encoding="UTF-8"?>
<svg xmlns="http://www.w3.org/2000/svg" viewBox="0 0 512 512" width="100%" height="100%">
<path d="M61.52 0.08C191.17 0.08 320.82 0.08 450.47 0.08C453.03 1.74 462.33 2.83 466.13 .17C478.44 8.52 489.9 17.02 497.74 27.51C502.52 33.89 506.56 41.2 508.84 48.85C509.81 52.1 510.28 59.18 511.92 61.56C511.92 191.19 511.92 320.81 511.92 450.44C510.36 452.71 509.1 462.51 507.82 466.12C504.51 475.46 498.75 484.44 491.68 491.43C484.45 498.56 475.69 504.42 466.12 507.82C462.47 509.12 452.77 510.34 450.45 511.92C320.82 511.92 191.18 511.92 61.55 511.92C59.13 510.26 52.12 509.82 48.85 508.84C40.84 506.44 32.87 502.13 26.38 496.84C16.45 488.75 8.9 478.38 4.3 466.47C2.73 462.4 1.9 453.31 0.08 450.48C0.08 320.83 0.08 191.17 0.08 61.52C2.09 58.41 2.06 52.54 3.16 48.84C5.42 41.21 9.45 33.84 14.25 27.5C22.21 16.98 33.31 9 45.53 4.3C49.58 2.74 58.73 1.89 61.52 0.08ZM135.82 96.21C89.69 101.62 83.1 167.55 127.64 181.17C133.84 183.07 140.26 183.63 146.74 182.88C192.8 177.49 197.27 110.46 152.87 97.81C147.35 96.24 141.59 95.53 135.82 96.21ZM273.25 227C269.84 220.63 276.13 210.53 269.48 204.27C265.43 200.46 258.83 201.65 253.75 201.65C242.42 201.65 231.08 201.65 219.75 201.65C213.51 201.65 207.37 202.06 205.3 209.05C204.01 213.38 205 219.25 205 223.75C205 233.92 205 244.08 205 254.25C205 287.75 205 321.25 205 354.75C205 369.25 205 383.75 205 398.25C205 404.18 203.99 411.69 210.37 414.86C215.95 417.63 228.29 416 234.75 416C242.25 416 249.75 416 257.25 416C261.4 416 265.5 416.42 268.91 413.64C274.95 408.71 272.5 389.76 272.5 382.25C272.5 364.08 272.5 345.92 272.5 327.75C272.5 317.16 271.77 306.28 273.16 295.77C276.46 270.79 295.16 249.08 322.53 258.25C340.97 264.44 345.39 285.53 345.68 302.75C346.1 327.23 345.65 351.76 345.65 376.25C345.65 384.05 344.11 402.6 346.14 409.17C347.9 414.87 353.6 415.92 358.75 415.92C370.92 415.92 383.08 415.92 395.25 415.92C400.32 415.92 406.74 417.08 411.04 413.78C417.11 409.13 414.97 398.91 414.97 392.25C414.95 372.58 414.95 352.92 414.95 333.25C414.95 289.17 419.5 221.21 367.61 203.2C357.97 199.85 347.93 198.73 337.75 198.33C326.46 197.9 314.53 199.54 303.87 203.18C295.85 205.91 288.42 210.68 282.28 216.53C278.97 219.68 276.61 224.09 273.25 227ZM116.86 201.7C107.42 202.77 106.97 211.06 106.97 218.75C106.97 234.92 106.97 251.08 106.97 267.25C106.97 302.42 106.97 337.58 106.97 372.75C106.97 381.42 106.97 390.08 106.97 398.75C106.97 403.32 106.33 408.11 109.34 411.92C113.06 416.63 118.88 416 124.25 416C133.58 416 142.92 416 152.25 416C156.59 416 161.84 416.8 166.07 415.77C175.59 413.44 174.57 403.43 174.57 395.75C174.57 376.58 174.57 357.42 174.57 338.25C174.57 305.25 174.57 272.25 174.57 239.25C174.57 231 177.2 209.89 170.92 204.35C166.69 200.61 160.5 201.55 155.25 201.55C142.68 201.55 129.34 200.28 116.86 201.7Z" fill="currentColor" fill-rule="evenodd"/>
</svg>
